# AST/ASF file generated using VICON BodyLanguage
# -----------------------------------------------
:version 1.10
:name VICON
:units
  mass 1.0
  length 0.45
  angle deg
:documentation
   .ast/.asf automatically generated from VICON data using
   VICON BodyBuilder and BodyLanguage model FoxedUp or BRILLIANT.MOD
:root
   order TX TY TZ RX RY RZ
   axis XYZ
   position 0 0 0  
   orientation 0 0 0 
:bonedata
  begin
     id 1 
     name lhipjoint
     direction 0.700308 -0.549349 0.455834 
     length 2.59063 
     axis 0 0 0  XYZ
  end
  begin
     id 2 
     name lfemur
     direction 0.34202 -0.939693 0  
     length 6.31066  
     axis 0 0 20  XYZ
    dof rx ry rz
    limits (-160.0 20.0)
           (-70.0 70.0)
           (-60.0 70.0)
  end
  begin
     id 3 
     name ltibia
     direction 0.34202 -0.939693 0   
     length 7.36093   
     axis 0 0 20   XYZ
    dof rx
    limits (-10.0 170.0)
  end
  begin
     id 4 
     name lfoot
     direction 0.0905332 -0.248738 0.96433   
     length 2.0233   
     axis -90 7.62852e-016 20   XYZ
    dof rx rz
    limits (-45.0 90.0)
           (-70.0 20.0)
  end
  begin
     id 5 
     name ltoes
     direction 1.53573e-011 -4.21855e-011 1   
     length 1.01524   
     axis -90 7.62852e-016 20   XYZ
    dof rx
    limits (-90.0 20.0)
  end
  begin
     id 6 
     name rhipjoint
     direction -0.61416 -0.607328 0.503944   
     length 2.34332  
     axis 0 0 0  XYZ 
  end
  begin
     id 7 
     name rfemur
     direction -0.34202 -0.939693 0   
     length 6.58548   
     axis 0 0 -20   XYZ
    dof rx ry rz
    limits (-160.0 20.0)
           (-70.0 70.0)
           (-70.0 60.0)
  end
  begin
     id 8 
     name rtibia
     direction -0.34202 -0.939693 0   
     length 7.20707   
     axis 0 0 -20   XYZ
    dof rx
    limits (-10.0 170.0)
 end
 begin
     id 9 
     name rfoot
     direction -0.136772 -0.375778 0.916561   
     length 1.92184  
     axis -90 -7.62852e-016 -20   XYZ
    dof rx rz
    limits (-45.0 90.0)
           (-20.0 70.0)
  end
  begin
     id 10 
     name rtoes
     direction -1.53535e-011 -4.21828e-011 1   
     length 0.951089   
     axis -90 -7.62852e-016 -20   XYZ
    dof rx
    limits (-90.0 20.0)
  end
  begin
     id 11 
     name lowerback
     direction -0.0444974 0.988086 -0.147332   
     length 1.9609   
     axis 0 0 0   XYZ
    dof rx ry rz
    limits (-20.0 45.0)
           (-30.0 30.0)
           (-30.0 30.0)
  end
  begin
     id 12 
     name upperback
     direction 0.00613146 0.999513 0.0306081   
     length 1.94944   
     axis 0 0 0   XYZ
    dof rx ry rz
    limits (-20.0 45.0)
           (-30.0 30.0)
           (-30.0 30.0)
  end
  begin
     id 13 
     name thorax
     direction 0.0254621 0.994518 0.101418   
     length 2.0119   
     axis 0 0 0   XYZ
    dof rx ry rz
    limits (-20.0 45.0)
           (-30.0 30.0)
           (-30.0 30.0)
  end
  begin
     id 14 
     name lowerneck
     direction 0.0168698 0.977854 0.208608   
     length 1.6375   
     axis 0 0 0   XYZ
    dof rx ry rz
    limits (-20.0 45.0)
           (-30.0 30.0)
           (-30.0 30.0)
  end
  begin
     id 15 
     name upperneck
     direction -0.0283988 0.989338 -0.142843   
     length 1.6851   
     axis 0 0 0   XYZ
    dof rx ry rz
    limits (-20.0 45.0)
           (-30.0 30.0)
           (-30.0 30.0)
  end
  begin
     id 16
     name head
     direction -0.0129422 0.99741 -0.0707489  
     length 1.69029  
     axis 0 0 0   XYZ
    dof rx ry rz
    limits (-20.0 45.0)
           (-30.0 30.0)
           (-30.0 30.0)
  end
  begin
     id 17 
     name lclavicle
     direction 0.820295 0.564628 -0.0911715  
     length 3.16484  
     axis 0 0 0   XYZ
    dof ry rz
    limits (-20.0 10.0)
           (0.0 20.0)
  end
  begin
     id 18 
     name lhumerus
     direction 1 -4.48969e-011 1.00186e-027   
     length 5.17853   
     axis 180 -30 -90   XYZ
    dof rx ry rz
    limits (-60.0 90.0)
           (-90.0 90.0)
           (-90.0 90.0)
  end
  begin
     id 19
     name lradius
     direction 1 -4.48966e-011 -1.52922e-027   
     length 3.40399   
     axis 180 -30 -90   XYZ
    dof rx
    limits (-10.0 170.0)
  end
  begin
     id 20
     name lwrist
     direction 1 -4.48981e-011 -3.80893e-027   
     length 1.70199   
     axis 1.1049e-015 90 90   XYZ
    dof ry
    limits (-180.0 0.0)
 end
  begin
     id 21 
     name lhand
     direction 1 -4.48957e-011 -7.61786e-027   
     length 0.708964   
     axis 4.86085e-015 90 90   XYZ
    dof rx rz
    limits (-90.0 90.0)
           (-45.0 45.0)
  end
  begin
     id 22 
     name lfingers
     direction 1 -4.48929e-011 -1.52357e-026   
     length 0.571585   
     axis 9.7217e-015 90 90   XYZ
    dof rx
    limits (0.0 90.0)
  end
  begin
     id 23
     name lthumb
     direction 0.707107 -6.34905e-011 0.707107   
     length 0.820685   
     axis -90 45 2.85299e-015   XYZ
    dof rx rz
    limits (-45.0 45.0)
           (-45.0 45.0)
  end
  begin
     id 24 
     name rclavicle
     direction -0.858602 0.463947 -0.218075   
     length 3.35137  
     axis 0 0 0   XYZ 
    dof ry rz
    limits (-10.0 20.0)
           (-20.0 0.0)
  end
  begin
     id 25 
     name rhumerus
     direction -1 -4.48969e-011 -1.98511e-027  
     length 5.42351   
     axis 180 30 90   XYZ
    dof rx ry rz
    limits (-90.0 60.0)
           (-90.0 90.0)
           (-90.0 90.0)
  end
  begin
     id 26 
     name rradius
     direction -1 -4.48961e-011 -2.82624e-027   
     length 3.42066   
     axis 180 30 90   XYZ
    dof rx
    limits (-10.0 170.0)
  end
  begin
     id 27 
     name rwrist
     direction -1 -4.48966e-011 -3.80893e-027   
     length 1.71033   
     axis 1.1049e-015 -90 -90   XYZ
    dof ry
    limits (-180.0 0.0)
  end
  begin
     id 28
     name rhand
     direction -1 -4.48964e-011 -7.61786e-027   
     length 0.743608   
     axis 4.86085e-015 -90 -90   XYZ
    dof rx rz
    limits (-90.0 90.0)
           (-45.0 45.0)
  end
  begin
     id 29
     name rfingers
     direction -1 -4.48961e-011 -1.52357e-026   
     length 0.599516   
     axis 9.7217e-015 -90 -90   XYZ
    dof rx
    limits (0.0 90.0)
  end
  begin
     id 30
     name rthumb
     direction -0.707107 -6.34913e-011 0.707107   
     length 0.860789   
     axis -90 -45 -2.85299e-015   XYZ
    dof rx rz
    limits (-45.0 45.0)
           (-45.0 45.0)
  end
:hierarchy
  begin
    root lhipjoint rhipjoint lowerback
    lhipjoint lfemur
    lfemur ltibia
    ltibia lfoot
    lfoot ltoes
    rhipjoint rfemur
    rfemur rtibia
    rtibia rfoot
    rfoot rtoes
    lowerback upperback
    upperback thorax
    thorax lowerneck lclavicle rclavicle
    lowerneck upperneck
    upperneck head
    lclavicle lhumerus
    lhumerus lradius
    lradius lwrist
    lwrist lhand lthumb
    lhand lfingers
    rclavicle rhumerus
    rhumerus rradius
    rradius rwrist
    rwrist rhand rthumb
    rhand rfingers
  end

#!OML:ASF E:\mmandel\Project 1\Capture day 1\Session 2\Subject.ASF
:FULLY-SPECIFIED
:DEGREES
908
root 7.685 14.1064 -2.62691 3.44581 85.3252 -16.3414
lowerback 30.9896 0.868529 -1.74322
upperback 3.7856 0.821173 -0.715032
thorax -11.962 0.594068 -0.16688
lowerneck -16.5799 1.37305 2.58364
upperneck -4.41172 1.75515 -4.70421
head 1.49558 0.859235 -1.8611
rclavicle -1.11319e-014 -8.74653e-015
rhumerus -14.1196 -0.0941671 -81.6161
rradius 75.1812
rwrist -368.975
rhand -16.9187 38.5945
rfingers 7.12502
rthumb 9.31383 8.82029
lclavicle -1.11319e-014 -8.74653e-015
lhumerus -0.938596 -11.9774 71.3277
lradius 63.2954
lwrist 27.0962
lhand -15.6209 -27.5903
lfingers 7.12502
lthumb 10.5659 2.12409
rfemur -61.2231 -10.5237 7.70061
rtibia 67.7665
rfoot -25.0129 -4.11791
rtoes -21.6182
lfemur -62.0037 20.2465 -18.6133
ltibia 74.9276
lfoot -28.1435 -2.84428
ltoes -0.866174
909
root 7.68057 14.1069 -2.60411 3.84912 85.4084 -15.9984
lowerback 30.9845 0.908842 -1.77177
upperback 3.77337 0.857208 -0.757075
thorax -11.9735 0.610921 -0.210174
lowerneck -16.8289 1.29318 2.63185
upperneck -4.23836 1.64129 -4.69899
head 1.59358 0.797076 -1.87715
rclavicle -1.41137e-014 -9.14409e-015
rhumerus -13.9929 -0.164084 -81.6221
rradius 75.1952
rwrist -369.014
rhand -16.6431 38.6004
rfingers 7.12502
rthumb 9.5797 8.83819
lclavicle -1.41137e-014 -9.14409e-015
lhumerus -0.969563 -11.9989 71.3838
lradius 63.4038
lwrist 27.0694
lhand -14.976 -26.5504
lfingers 7.12502
lthumb 11.1879 3.13131
rfemur -61.3366 -10.4807 7.72991
rtibia 67.9356
rfoot -25.1316 -4.25719
rtoes -21.6507
lfemur -62.1016 20.301 -18.628
ltibia 74.9148
lfoot -28.0764 -3.0244
ltoes -0.902958
910
root 7.66911 14.1028 -2.57774 5.106 85.6592 -14.9134
lowerback 30.9163 0.863248 -1.86311
upperback 3.72846 0.763067 -0.787105
thorax -11.9942 0.570967 -0.156614
lowerneck -16.9707 1.34405 2.77169
upperneck -4.10537 1.684 -4.74319
head 1.66806 0.81204 -1.91558
rclavicle -5.96354e-016 1.98785e-014
rhumerus -13.8224 -0.143774 -81.683
rradius 75.1523
rwrist -369.057
rhand -16.5193 38.6197
rfingers 7.12502
rthumb 9.69915 8.86304
lclavicle -5.96354e-016 1.98785e-014
lhumerus -0.977816 -11.8706 71.4088
lradius 63.4044
lwrist 26.9338
lhand -15.7837 -27.4796
lfingers 7.12502
lthumb 10.4089 2.2427
rfemur -61.5878 -10.5946 7.70789
rtibia 68.136
rfoot -25.2502 -4.37486
rtoes -21.6275
lfemur -62.4339 20.2269 -18.774
ltibia 74.9158
lfoot -27.949 -2.96171
ltoes -1.91917
911
root 7.6584 14.0943 -2.55298 5.02182 86.0028 -15.1371
lowerback 30.8823 0.747941 -1.84932
upperback 3.68132 0.622524 -0.754517
thorax -12.0317 0.506698 -0.0758321
lowerneck -16.8816 1.39841 2.86433
upperneck -4.17411 1.73957 -4.77426
head 1.63356 0.839753 -1.93838
rclavicle 1.86858e-014 4.33351e-014
rhumerus -13.5869 0.00955636 -81.6797
rradius 75.0114
rwrist -369.182
rhand -16.5296 38.5292
rfingers 7.12502
rthumb 9.68918 8.77201
lclavicle 1.86858e-014 4.33351e-014
lhumerus -1.05383 -11.6447 71.4744
lradius 63.3384
lwrist 26.7458
lhand -15.9114 -27.8527
lfingers 7.12502
lthumb 10.2856 1.8758
rfemur -61.7903 -10.7718 7.77951
rtibia 68.3318
rfoot -25.3481 -4.48888
rtoes -21.5231
lfemur -62.7668 20.0542 -18.7601
ltibia 74.9291
lfoot -27.7386 -3.10112
ltoes -1.82318
912
root 7.65941 14.0911 -2.53385 3.83204 86.2223 -16.3489
lowerback 30.8274 0.697994 -1.70058
upperback 3.70439 0.618039 -0.70092
thorax -11.9824 0.499345 -0.096352
lowerneck -16.6504 1.34468 2.69597
upperneck -4.46562 1.70007 -4.72408
head 1.48961 0.831713 -1.89151
rclavicle -1.61016e-014 6.55989e-015
rhumerus -13.4703 -0.0367572 -81.5722
rradius 74.995
rwrist -369.207
rhand -16.5265 38.5167
rfingers 7.12502
rthumb 9.69225 8.75966
lclavicle -1.61016e-014 6.55989e-015
lhumerus -1.0914 -11.5682 71.6355
lradius 63.3922
lwrist 26.7708
lhand -15.75 -27.9037
lfingers 7.12502
lthumb 10.4413 1.81701
rfemur -61.8169 -10.8738 7.90857
rtibia 68.4828
rfoot -25.4565 -4.60966
rtoes -21.7
lfemur -62.8312 19.9429 -18.6087
ltibia 74.9102
lfoot -27.616 -3.36016
ltoes -0.984703
913
root 7.66572 14.0919 -2.51142 3.43281 86.3703 -16.625
lowerback 30.8978 0.731761 -1.65791
upperback 3.75917 0.685603 -0.660116
thorax -11.9516 0.530728 -0.102083
lowerneck -15.9952 1.4814 2.12693
upperneck -4.91941 1.97856 -4.40242
head 1.21926 1.00144 -1.66263
rclavicle -2.48481e-014 -6.55989e-015
rhumerus -13.3923 -0.160649 -81.4218
rradius 75.0482
rwrist -369.264
rhand -16.5301 38.5672
rfingers 7.12502
rthumb 9.68872 8.81006
lclavicle -2.48481e-014 -6.55989e-015
lhumerus -1.07145 -11.5876 71.8183
lradius 63.4341
lwrist 26.8928
lhand -15.6546 -27.9697
lfingers 7.12502
lthumb 10.5334 1.74641
rfemur -61.6369 -10.8643 7.94194
rtibia 68.6082
rfoot -25.6425 -4.68648
rtoes -21.7526
lfemur -62.6172 19.8579 -18.4521
ltibia 74.8341
lfoot -27.6209 -3.40669
ltoes -1.15705
914
root 7.66625 14.094 -2.48334 5.14523 86.5453 -14.7683
lowerback 31.1504 0.769528 -1.83214
upperback 3.74198 0.672138 -0.676986
thorax -12.0786 0.534187 -0.0247628
lowerneck -16.4881 1.32073 2.64615
upperneck -4.66674 1.68305 -4.89881
head 1.39593 0.825999 -1.94031
rclavicle 7.7526e-015 -1.43125e-014
rhumerus -13.3089 -0.104389 -81.325
rradius 75.1167
rwrist -369.392
rhand -16.5644 38.4848
rfingers 7.12502
rthumb 9.65565 8.72608
lclavicle 7.7526e-015 -1.43125e-014
lhumerus -1.10858 -11.5498 71.901
lradius 63.3332
lwrist 26.8864
lhand -15.6643 -28.2459
lfingers 7.12502
lthumb 10.524 1.4706
rfemur -61.4419 -10.8686 7.84987
rtibia 68.7226
rfoot -25.8157 -4.71018
rtoes -21.5168
lfemur -62.3667 19.7306 -18.4084
ltibia 74.6972
lfoot -27.5564 -3.37764
ltoes -1.58206
915
root 7.66528 14.0989 -2.45959 6.33451 86.6478 -13.5654
lowerback 31.3381 0.784383 -1.93822
upperback 3.65807 0.642188 -0.717525
thorax -12.2526 0.524963 -0.00272393
lowerneck -16.3395 1.4292 2.66895
upperneck -4.70166 1.82255 -4.88298
head 1.3642 0.897475 -1.92974
rclavicle -8.94531e-015 1.98785e-016
rhumerus -13.2864 -0.0747608 -81.3503
rradius 75.1715
rwrist -369.402
rhand -16.5918 38.3859
rfingers 7.12502
rthumb 9.62922 8.62595
lclavicle -8.94531e-015 1.98785e-016
lhumerus -1.21328 -11.5068 71.9457
lradius 63.1931
lwrist 26.7652
lhand -15.7553 -28.5492
lfingers 7.12502
lthumb 10.4362 1.17179
rfemur -61.4333 -10.8739 7.8425
rtibia 68.7905
rfoot -25.8744 -4.80908
rtoes -21.4911
lfemur -62.2809 19.6855 -18.3934
ltibia 74.5463
lfoot -27.481 -3.46932
ltoes -1.31464
916
root 7.66986 14.1048 -2.44159 4.94856 86.7228 -15.0081
lowerback 31.3364 0.76106 -1.81353
upperback 3.60986 0.649339 -0.723964
thorax -12.3062 0.521532 -0.0799791
lowerneck -16.1464 1.49031 2.61327
upperneck -4.80332 1.91271 -4.83358
head 1.29853 0.948024 -1.89684
rclavicle 3.18055e-014 1.64991e-014
rhumerus -13.202 -0.107313 -81.3833
rradius 75.1112
rwrist -369.401
rhand -16.5802 38.3435
rfingers 7.12502
rthumb 9.64036 8.58405
lclavicle 3.18055e-014 1.64991e-014
lhumerus -1.3552 -11.4522 72.0409
lradius 63.1483
lwrist 26.6201
lhand -15.7734 -28.5974
lfingers 7.12502
lthumb 10.4188 1.12444
rfemur -61.4837 -10.8573 7.9976
rtibia 68.8138
rfoot -25.8944 -4.96843
rtoes -21.5797
lfemur -62.2743 19.6852 -18.258
ltibia 74.4119
lfoot -27.4433 -3.58999
ltoes -0.76716
917
root 7.67535 14.111 -2.42154 3.85802 86.8366 -16.1618
lowerback 31.22 0.740956 -1.67326
upperback 3.62103 0.673035 -0.722344
thorax -12.2441 0.525391 -0.161392
lowerneck -16.2614 1.42632 2.62477
upperneck -4.68199 1.82633 -4.85104
head 1.35615 0.900821 -1.91082
rclavicle -1.35174e-014 6.55989e-015
rhumerus -13.0713 -0.153632 -81.3089
rradius 75.0491
rwrist -369.409
rhand -16.5303 38.3169
rfingers 7.12502
rthumb 9.68855 8.55969
lclavicle -1.35174e-014 6.55989e-015
lhumerus -1.46263 -11.4054 72.1416
lradius 63.2251
lwrist 26.6419
lhand -15.5965 -28.4914
lfingers 7.12502
lthumb 10.5894 1.22185
rfemur -61.5167 -10.8666 8.12976
rtibia 68.8287
rfoot -25.9315 -5.05637
rtoes -21.3687
lfemur -62.2959 19.709 -18.1753
ltibia 74.2642
lfoot -27.3664 -3.6157
ltoes -1.05069
918
root 7.67717 14.117 -2.39829 3.46002 86.9537 -16.62
lowerback 31.1183 0.757325 -1.60056
upperback 3.65727 0.724614 -0.70493
thorax -12.1602 0.545905 -0.200064
lowerneck -16.398 1.37939 2.47655
upperneck -4.53496 1.79109 -4.80595
head 1.42439 0.882667 -1.87219
rclavicle 6.75868e-015 -1.72943e-014
rhumerus -12.9125 -0.246686 -81.1808
rradius 75.0089
rwrist -369.383
rhand -16.5873 38.3505
rfingers 7.12502
rthumb 9.63353 8.59073
lclavicle 6.75868e-015 -1.72943e-014
lhumerus -1.46026 -11.3914 72.2504
lradius 63.3311
lwrist 26.7675
lhand -15.3654 -28.375
lfingers 7.12502
lthumb 10.8123 1.32669
rfemur -61.5465 -10.8919 8.22594
rtibia 68.8568
rfoot -26.0069 -5.08357
rtoes -21.0935
lfemur -62.3506 19.7925 -18.1575
ltibia 74.1207
lfoot -27.2657 -3.66499
ltoes -1.75922
919
root 7.67796 14.1219 -2.37616 3.35076 87.0907 -16.7389
lowerback 31.0932 0.75938 -1.59267
upperback 3.7005 0.737523 -0.681223
thorax -12.101 0.552835 -0.183256
lowerneck -16.5873 1.33767 2.4721
upperneck -4.48881 1.73975 -4.8491
head 1.47144 0.854731 -1.88966
rclavicle 1.21259e-014 3.61788e-014
rhumerus -12.6343 -0.259422 -81.1065
rradius 74.872
rwrist -369.374
rhand -16.7486 38.4309
rfingers 7.12502
rthumb 9.47794 8.66406
lclavicle 1.21259e-014 3.61788e-014
lhumerus -1.46811 -11.3084 72.3449
lradius 63.3656
lwrist 26.7777
lhand -15.2634 -28.4466
lfingers 7.12502
lthumb 10.9107 1.24994
rfemur -61.5264 -10.9743 8.30421
rtibia 68.9037
rfoot -26.0969 -5.16253
rtoes -21.4419
lfemur -62.3037 19.7233 -18.0719
ltibia 73.9843
lfoot -27.1722 -3.65994
ltoes -2.26395
920
root 7.68053 14.1247 -2.35634 5.64027 87.2613 -14.3989
lowerback 31.1817 0.731573 -1.65585
upperback 3.71432 0.678646 -0.714406
thorax -12.1222 0.530081 -0.16348
lowerneck -16.6639 1.29251 2.67929
upperneck -4.60754 1.6465 -5.00351
head 1.44729 0.804376 -1.98437
rclavicle 4.57205e-015 1.64991e-014
rhumerus -12.3895 -0.256536 -81.1068
rradius 74.7642
rwrist -369.386
rhand -16.7793 38.5505
rfingers 7.12502
rthumb 9.44826 8.7823
lclavicle 4.57205e-015 1.64991e-014
lhumerus -1.55964 -11.2012 72.4131
lradius 63.3319
lwrist 26.7091
lhand -15.2529 -28.0573
lfingers 7.12502
lthumb 10.9208 1.63868
rfemur -61.4434 -11.1412 8.25556
rtibia 68.9723
rfoot -26.1756 -5.20136
rtoes -21.8241
lfemur -62.1267 19.4793 -18.0476
ltibia 73.8252
lfoot -27.1255 -3.6224
ltoes -2.43868
921
root 7.68435 14.1301 -2.3348 7.92349 87.4003 -12.0678
lowerback 31.315 0.725712 -1.65529
upperback 3.69419 0.664489 -0.755113
thorax -12.2009 0.524094 -0.204116
lowerneck -16.4548 1.2258 2.76357
upperneck -4.87035 1.54549 -5.15471
head 1.323 0.756654 -2.05463
rclavicle 7.95139e-016 3.43897e-014
rhumerus -12.2989 -0.365833 -81.0643
rradius 74.7801
rwrist -369.466
rhand -16.7063 38.6297
rfingers 7.12502
rthumb 9.51878 8.86471
lclavicle 7.95139e-016 3.43897e-014
lhumerus -1.68606 -11.2249 72.4908
lradius 63.3863
lwrist 26.7418
lhand -15.2269 -26.9783
lfingers 7.12502
lthumb 10.9459 2.71635
rfemur -61.3601 -11.2213 8.21128
rtibia 69.042
rfoot -26.2598 -5.20463
rtoes -21.5398
lfemur -61.9748 19.3877 -18.07
ltibia 73.6455
lfoot -27.0737 -3.72501
ltoes -2.31488
922
root 7.68711 14.1358 -2.31055 9.50104 87.5591 -10.505
lowerback 31.3522 0.718944 -1.63444
upperback 3.66214 0.659286 -0.766048
thorax -12.2527 0.520587 -0.225934
lowerneck -16.3471 1.11758 2.70309
upperneck -4.87465 1.4113 -5.13138
head 1.2962 0.691222 -2.04389
rclavicle -8.15017e-015 -8.54774e-015
rhumerus -12.3252 -0.505112 -81.0053
rradius 74.9223
rwrist -369.512
rhand -16.7457 38.5619
rfingers 7.12502
rthumb 9.48068 8.79516
lclavicle -8.15017e-015 -8.54774e-015
lhumerus -1.79142 -11.2839 72.5579
lradius 63.424
lwrist 26.7631
lhand -15.2116 -26.5757
lfingers 7.12502
lthumb 10.9607 3.11822
rfemur -61.3548 -11.2678 8.21096
rtibia 69.1274
rfoot -26.3625 -5.26942
rtoes -21.3229
lfemur -61.9304 19.3648 -18.0795
ltibia 73.471
lfoot -26.932 -3.89381
ltoes -1.99376
